<svg xmlns="http://www.w3.org/2000/svg" viewBox="0 0 1024 1024" role="img" aria-labelledby="title desc">
  <title id="title">uPlot.rs uygulama ikonu</title>
  <desc id="desc">Koyu zemin üzerinde kırmızı çizgi, boş veri noktaları ve mavi imleç eksenleri.</desc>
  <defs>
    <linearGradient id="zemin" x1="0" y1="0" x2="1" y2="1">
      <stop offset="0" stop-color="#111827"/>
      <stop offset="1" stop-color="#1e293b"/>
    </linearGradient>
    <filter id="golge" x="-20%" y="-20%" width="140%" height="140%">
      <feDropShadow dx="0" dy="28" stdDeviation="28" flood-color="#020617" flood-opacity=".32"/>
    </filter>
  </defs>
  <rect width="1024" height="1024" rx="224" fill="url(#zemin)"/>
  <rect x="132" y="164" width="760" height="696" rx="92" fill="#f8fafc" filter="url(#golge)"/>
  <path d="M224 300H800M224 440H800M224 580H800M224 720H800M320 252V772M512 252V772M704 252V772"
        fill="none" stroke="#dbe3ee" stroke-width="16" stroke-linecap="round"/>
  <path d="M220 602C280 600 315 508 378 500S472 650 542 621 634 352 708 375 757 493 804 468"
        fill="none" stroke="#dc2626" stroke-width="34" stroke-linecap="round" stroke-linejoin="round"/>
  <g fill="#f8fafc" stroke="#dc2626" stroke-width="18">
    <circle cx="220" cy="602" r="25"/><circle cx="378" cy="500" r="25"/>
    <circle cx="542" cy="621" r="25"/><circle cx="708" cy="375" r="25"/>
    <circle cx="804" cy="468" r="25"/>
  </g>
  <path d="M640 244V776M188 434H836" fill="none" stroke="#3b82f6" stroke-width="18"
        stroke-linecap="round" stroke-dasharray="30 30" opacity=".88"/>
  <circle cx="640" cy="434" r="31" fill="#3b82f6" stroke="#f8fafc" stroke-width="14"/>
</svg>
